<svg id="svg" xmlns="http://www.w3.org/2000/svg" xmlns:xlink="http://www.w3.org/1999/xlink" width="400" height="331.358024691358" viewBox="0, 0, 400,331.358024691358"><g id="svgg"><path id="path0" d="M232.173 6.083 C 231.581 6.797,230.579 11.166,230.737 12.346 C 230.792 12.753,230.579 14.309,230.264 15.802 C 229.949 17.296,229.113 21.519,228.406 25.185 C 226.612 34.481,226.924 34.054,224.536 30.491 C 221.157 25.451,218.393 25.052,216.333 29.307 C 214.680 32.722,214.297 32.869,211.557 31.131 C 210.255 30.305,208.945 29.630,208.646 29.630 C 208.107 29.630,206.915 23.940,206.912 21.349 C 206.908 18.889,205.154 16.706,203.322 16.883 C 200.989 17.108,200.002 19.364,200.001 24.469 L 200.000 28.444 198.148 28.248 C 195.865 28.006,195.062 27.047,195.062 24.562 C 195.062 22.278,194.169 21.235,192.213 21.235 C 190.654 21.235,189.630 22.700,189.630 24.930 C 189.630 26.014,186.506 29.614,185.556 29.625 C 184.583 29.637,185.214 33.576,186.296 34.249 C 187.429 34.954,199.667 38.345,202.056 38.616 L 203.372 38.765 200.449 44.691 C 195.095 55.545,186.640 63.802,185.407 59.383 C 185.060 58.139,184.775 49.973,184.715 39.556 C 184.689 35.126,184.255 34.074,182.453 34.074 C 181.021 34.074,178.765 36.695,178.765 38.359 C 178.765 40.914,174.243 53.471,173.580 52.757 C 172.379 51.463,171.793 48.550,171.511 42.469 C 171.183 35.399,170.873 34.443,168.983 34.662 C 167.314 34.855,166.627 36.255,165.899 40.943 C 165.592 42.926,164.720 45.914,163.962 47.583 L 162.583 50.617 162.032 49.227 C 161.729 48.463,161.481 46.794,161.481 45.519 C 161.481 42.076,160.105 41.347,157.661 43.493 L 155.878 45.059 154.935 43.764 C 153.221 41.411,151.274 42.212,148.518 46.401 C 147.741 47.583,146.873 48.217,145.708 48.455 C 143.616 48.883,142.176 50.638,142.343 52.555 C 142.459 53.877,143.009 54.271,148.900 57.246 C 152.984 59.309,157.219 61.952,160.505 64.489 C 163.351 66.686,167.263 69.310,169.199 70.320 C 173.911 72.780,187.906 87.527,193.448 95.874 C 194.414 97.328,196.255 99.963,197.538 101.728 C 198.821 103.494,201.378 107.716,203.219 111.111 L 206.567 117.284 206.534 123.481 C 206.490 131.749,204.895 139.656,202.391 144.019 L 201.218 146.063 195.150 142.851 L 189.083 139.638 189.423 138.091 C 189.966 135.622,189.801 127.930,189.134 124.590 C 188.102 119.424,186.152 118.716,183.298 122.471 C 180.656 125.946,179.884 125.965,179.498 122.565 C 178.067 109.976,174.295 105.314,170.570 111.530 L 168.988 114.172 167.764 112.024 C 167.091 110.843,165.779 108.433,164.849 106.668 C 161.860 101.000,159.788 102.181,159.939 109.464 C 160.088 116.567,160.974 118.766,166.673 126.173 C 168.763 128.889,170.897 131.940,171.414 132.953 L 172.355 134.794 171.078 134.309 C 169.387 133.666,166.616 131.726,161.296 127.463 C 155.946 123.175,153.360 122.925,154.294 126.784 C 156.285 135.015,169.516 145.546,178.980 146.433 L 182.695 146.781 183.947 149.021 C 184.636 150.253,185.141 151.300,185.069 151.347 C 184.305 151.849,176.066 152.645,172.817 152.531 C 170.521 152.451,168.309 152.543,167.901 152.737 C 166.097 153.595,156.701 143.879,147.318 131.453 C 143.935 126.973,142.155 126.599,141.728 130.278 L 141.481 132.408 138.272 129.912 C 134.679 127.119,134.186 126.975,133.173 128.422 C 130.947 131.599,136.568 140.398,141.813 141.947 C 145.606 143.067,143.974 143.863,135.855 144.854 C 133.281 145.169,134.770 149.842,138.196 152.202 C 139.353 152.998,139.353 153.001,138.331 153.548 C 134.021 155.855,139.395 160.494,146.377 160.494 C 148.857 160.494,148.112 162.993,144.912 165.409 C 140.534 168.714,141.791 174.062,146.268 171.178 C 146.895 170.774,148.296 170.287,149.383 170.095 L 151.358 169.746 150.029 170.812 C 149.298 171.398,147.936 172.197,147.002 172.587 C 143.169 174.189,141.198 177.050,142.815 178.667 C 143.608 179.460,146.152 179.420,147.122 178.600 C 147.550 178.237,148.679 177.641,149.630 177.275 C 150.580 176.908,152.593 175.781,154.102 174.771 C 157.179 172.709,161.265 170.887,165.679 169.607 C 167.309 169.134,169.642 168.316,170.864 167.789 C 172.994 166.871,175.659 166.448,185.432 165.477 C 187.877 165.234,190.543 164.866,191.358 164.658 C 192.762 164.300,192.801 164.330,192.109 165.227 C 188.935 169.340,183.860 174.355,180.074 177.120 C 174.553 181.152,171.119 183.968,166.914 187.913 C 162.546 192.011,159.693 193.872,153.852 196.434 C 146.869 199.497,145.796 200.818,148.198 203.396 C 148.768 204.009,149.157 204.565,149.062 204.632 C 140.592 210.592,110.656 222.796,107.488 221.581 C 105.740 220.910,98.147 203.503,97.535 198.765 C 97.360 197.407,96.854 194.963,96.411 193.333 C 95.799 191.080,95.595 187.947,95.560 180.247 C 95.506 168.433,95.299 167.163,92.979 164.452 C 92.023 163.336,91.323 162.377,91.423 162.322 C 91.523 162.267,92.128 161.928,92.768 161.569 C 93.806 160.985,94.012 161.032,94.697 162.010 C 95.341 162.930,95.551 162.992,96.004 162.401 C 96.301 162.013,98.265 161.296,100.370 160.806 C 104.753 159.787,105.474 158.685,102.469 157.598 C 99.254 156.435,101.707 155.144,105.928 155.777 C 107.133 155.958,108.188 155.890,108.354 155.622 C 108.515 155.361,109.534 154.998,110.617 154.815 C 112.684 154.466,113.464 153.872,112.577 153.323 C 112.211 153.097,112.227 152.786,112.629 152.302 C 113.118 151.713,112.640 151.605,109.529 151.605 C 106.323 151.605,105.713 151.458,104.777 150.462 C 103.467 149.067,103.427 148.642,104.609 148.642 C 105.107 148.642,105.674 148.482,105.870 148.286 C 106.414 147.743,109.457 148.109,113.827 149.245 C 119.160 150.630,122.469 151.075,122.469 150.405 C 122.469 149.393,118.940 147.071,115.654 145.922 C 113.835 145.286,112.735 144.748,113.210 144.728 C 114.625 144.668,114.189 143.704,112.747 143.704 L 111.420 143.704 112.835 142.227 C 114.677 140.305,114.399 140.136,110.321 140.704 C 108.447 140.965,106.139 141.016,105.192 140.817 L 103.471 140.456 106.300 139.823 C 108.918 139.237,110.617 137.977,110.617 136.622 C 110.617 136.368,108.817 136.329,106.402 136.531 C 103.878 136.741,101.946 136.691,101.587 136.406 C 101.257 136.145,100.177 135.785,99.186 135.607 C 98.195 135.429,96.782 134.809,96.047 134.231 C 95.049 133.446,93.534 133.054,90.083 132.686 C 85.554 132.204,85.397 132.144,82.667 129.835 C 76.476 124.600,70.750 125.182,62.994 131.835 C 57.848 136.248,57.708 136.633,57.644 146.579 C 57.577 157.081,58.495 159.534,62.763 160.255 C 67.544 161.063,68.984 165.909,66.241 171.958 C 65.714 173.122,65.021 175.074,64.702 176.296 C 64.383 177.519,63.791 179.515,63.386 180.733 C 62.561 183.213,62.765 185.054,64.250 188.518 C 66.488 193.738,67.253 205.053,65.679 209.630 C 65.136 211.208,64.691 213.101,64.691 213.836 C 64.691 215.975,61.981 221.316,59.847 223.382 C 58.768 224.427,57.480 226.204,56.985 227.332 C 56.491 228.460,55.300 230.305,54.340 231.433 C 50.375 236.087,47.619 244.007,49.258 246.041 C 49.535 246.385,49.916 247.386,50.104 248.266 C 50.292 249.145,50.980 250.285,51.633 250.798 C 52.774 251.695,52.794 251.817,52.150 253.891 C 51.781 255.078,50.985 258.272,50.382 260.988 C 49.779 263.704,48.753 267.815,48.103 270.123 C 47.453 272.432,46.719 275.321,46.471 276.543 C 45.264 282.504,43.573 287.683,40.995 293.320 C 36.424 303.317,35.858 304.400,34.727 305.316 C 34.136 305.796,32.784 307.488,31.723 309.077 L 29.794 311.965 28.375 311.222 C 27.513 310.770,25.492 310.457,23.231 310.424 L 19.506 310.370 19.359 312.114 C 19.165 314.422,20.376 315.502,25.432 317.530 C 27.605 318.401,30.049 319.398,30.864 319.745 C 38.788 323.121,42.963 321.894,42.963 316.190 C 42.963 313.239,43.162 312.248,43.959 311.236 C 44.506 310.540,45.549 308.060,46.277 305.726 C 47.004 303.391,48.624 299.794,49.876 297.732 C 51.128 295.670,52.545 292.892,53.025 291.559 C 53.506 290.226,54.639 287.469,55.544 285.432 C 57.502 281.024,59.006 276.476,59.956 272.092 C 60.338 270.330,61.218 266.778,61.913 264.198 C 62.616 261.588,63.147 258.356,63.109 256.915 C 63.023 253.615,63.119 253.545,66.264 254.641 C 69.772 255.862,78.943 255.641,84.973 254.189 C 85.977 253.947,90.289 263.277,94.037 273.803 C 97.933 284.743,98.666 287.126,99.969 293.086 C 100.681 296.346,101.591 299.850,101.990 300.874 C 102.389 301.898,102.716 303.587,102.716 304.628 C 102.716 305.668,102.975 307.262,103.292 308.170 C 103.793 309.609,103.752 309.889,102.974 310.343 C 98.861 312.744,95.309 316.671,95.309 318.817 C 95.309 323.554,100.498 324.153,111.671 320.706 C 112.930 320.318,114.597 319.993,115.375 319.984 C 118.552 319.949,119.894 315.985,117.303 314.288 C 116.635 313.850,115.960 313.090,115.804 312.599 C 115.648 312.107,114.811 310.738,113.944 309.556 C 112.283 307.292,110.702 299.607,110.642 293.510 C 110.628 292.113,110.308 289.335,109.930 287.337 C 109.552 285.339,108.974 281.926,108.646 279.753 C 107.249 270.511,103.670 261.418,98.957 255.136 C 96.633 252.038,96.278 250.871,97.654 250.853 C 101.399 250.806,120.494 237.979,120.494 235.510 C 120.494 234.780,117.416 231.553,116.243 231.052 C 116.001 230.949,114.638 229.503,113.214 227.839 L 110.625 224.813 112.224 224.493 C 113.861 224.166,115.062 225.021,115.062 226.514 C 115.062 226.870,115.284 227.160,115.556 227.160 C 116.237 227.160,116.178 226.828,115.242 225.399 C 114.228 223.852,114.453 223.639,117.383 223.370 C 120.914 223.045,122.049 222.741,121.719 222.208 C 121.557 221.944,121.666 221.728,121.962 221.728 C 122.821 221.728,123.171 223.257,122.543 224.263 C 121.441 226.027,128.664 224.828,130.929 222.871 C 131.372 222.488,132.539 221.953,133.522 221.682 C 134.791 221.331,135.309 220.911,135.309 220.231 C 135.309 219.508,135.855 219.136,137.539 218.712 C 139.834 218.134,140.970 217.284,139.447 217.284 C 138.975 217.284,137.795 217.525,136.825 217.819 C 135.855 218.114,134.496 218.522,133.805 218.726 C 130.699 219.643,130.755 218.433,133.872 217.291 C 138.258 215.683,144.819 212.307,148.642 209.691 L 151.852 207.494 152.681 208.553 C 153.278 209.315,153.365 209.788,152.991 210.238 C 152.606 210.702,152.691 210.864,153.320 210.864 C 153.787 210.864,154.802 211.238,155.576 211.696 C 157.342 212.739,161.174 212.013,163.611 210.174 C 167.199 207.466,172.412 205.938,178.081 205.931 C 183.473 205.925,187.322 205.263,188.977 204.057 L 190.194 203.170 197.937 208.301 C 202.195 211.122,206.679 213.887,207.901 214.444 C 215.119 217.734,225.159 230.890,225.181 237.087 C 225.187 239.022,221.872 244.212,219.307 246.279 C 218.059 247.286,215.815 249.264,214.321 250.675 C 212.827 252.086,209.660 254.984,207.284 257.116 C 198.144 265.312,197.682 268.660,203.966 281.156 C 204.808 282.829,206.511 286.864,207.751 290.123 C 208.991 293.383,210.641 297.316,211.418 298.865 C 212.641 301.305,212.793 302.062,212.557 304.544 C 211.870 311.749,216.738 313.710,219.695 307.420 C 221.340 303.922,220.051 298.425,214.738 286.272 L 212.838 281.927 213.162 276.889 C 213.512 271.469,214.146 269.489,217.140 264.466 C 219.894 259.846,220.716 259.139,228.708 254.517 C 229.226 254.218,232.337 251.551,235.623 248.591 C 243.371 241.611,242.543 241.844,244.628 246.054 C 247.169 251.186,251.205 258.726,251.782 259.422 C 252.053 259.749,252.638 262.105,253.080 264.657 C 253.523 267.210,254.228 269.960,254.646 270.768 C 256.084 273.549,255.704 284.498,254.008 289.171 C 253.367 290.938,252.054 295.097,251.091 298.414 C 249.736 303.078,248.980 304.836,247.755 306.173 C 242.746 311.640,244.171 315.062,251.457 315.062 C 256.627 315.062,257.284 314.680,257.284 311.677 C 257.284 310.378,257.631 308.146,258.055 306.717 C 258.480 305.289,258.699 303.526,258.543 302.801 C 258.386 302.075,258.502 300.704,258.799 299.753 C 259.363 297.950,260.196 287.485,260.496 278.427 C 260.593 275.525,260.913 272.699,261.209 272.146 C 261.661 271.302,263.181 255.016,263.203 250.782 C 263.208 249.828,263.544 249.352,264.423 249.053 C 265.743 248.606,268.945 246.007,272.625 242.398 L 274.963 240.105 278.335 241.040 C 280.190 241.555,282.823 241.974,284.187 241.972 C 285.551 241.970,289.901 242.233,293.854 242.556 C 300.415 243.092,301.361 243.064,304.718 242.224 C 307.110 241.627,309.796 241.344,312.402 241.417 C 315.363 241.500,317.056 241.283,318.889 240.586 L 321.370 239.643 321.633 241.427 C 323.727 255.629,329.808 268.433,336.601 272.943 C 339.773 275.049,339.825 275.178,339.168 279.351 C 338.869 281.247,338.762 285.232,338.923 288.481 C 339.206 294.238,339.205 294.248,337.793 296.197 C 337.015 297.271,335.887 299.121,335.286 300.309 C 334.684 301.497,333.845 302.671,333.420 302.918 C 330.426 304.657,325.417 310.916,325.446 312.883 C 325.510 317.270,336.652 318.595,341.212 314.758 C 343.030 313.229,343.086 312.793,341.517 312.399 C 340.541 312.154,340.206 311.601,339.722 309.436 L 339.126 306.774 341.970 302.455 C 343.535 300.080,345.468 296.778,346.267 295.117 C 348.568 290.332,349.201 289.205,350.213 288.089 C 351.980 286.141,351.238 279.468,348.504 272.716 C 347.267 269.660,346.329 267.160,346.420 267.160 C 346.511 267.160,347.770 267.724,349.219 268.413 C 362.191 274.584,364.128 276.675,364.194 284.576 C 364.220 287.627,364.428 292.141,364.657 294.606 C 365.233 300.795,364.447 303.042,359.913 308.179 C 354.317 314.519,355.822 317.213,364.987 317.261 C 370.971 317.293,371.921 316.717,371.821 313.114 C 371.779 311.605,371.983 308.815,372.276 306.914 C 372.568 305.012,372.820 301.012,372.835 298.025 C 372.850 295.037,373.078 291.704,373.340 290.617 C 373.602 289.531,373.931 286.531,374.070 283.951 C 374.209 281.370,374.565 277.256,374.862 274.807 C 375.472 269.771,374.929 265.364,373.465 263.476 C 368.202 256.687,365.562 254.000,361.799 251.605 C 360.813 250.977,361.455 235.256,362.679 230.060 C 363.346 227.231,367.287 214.827,367.647 214.425 C 368.330 213.664,370.176 221.151,369.588 222.295 C 367.139 227.058,367.267 237.595,369.841 243.210 C 370.339 244.296,371.128 246.403,371.593 247.891 C 374.656 257.680,380.556 258.480,382.386 249.355 L 383.196 245.315 381.694 241.565 C 379.894 237.068,379.201 232.219,379.035 222.963 C 378.967 219.160,378.546 214.049,378.099 211.605 C 377.652 209.160,377.043 205.605,376.744 203.704 C 375.051 192.923,366.477 183.111,356.917 181.013 C 351.179 179.754,345.441 178.761,343.915 178.763 C 343.081 178.764,341.342 178.406,340.052 177.966 C 336.706 176.826,321.075 177.947,318.711 179.497 C 316.209 181.136,297.111 180.417,284.640 178.215 C 281.625 177.682,277.847 177.226,276.245 177.202 C 272.652 177.147,254.203 178.704,246.420 179.720 C 244.383 179.986,242.469 180.213,242.168 180.225 C 241.866 180.237,240.827 180.784,239.859 181.441 C 234.251 185.247,214.815 181.028,214.815 176.005 C 214.815 175.473,217.199 169.861,218.308 167.784 C 218.983 166.519,218.864 165.082,218.058 164.773 C 217.669 164.623,217.280 163.779,217.194 162.896 C 217.062 161.552,216.777 161.224,215.432 160.879 C 213.239 160.314,213.415 159.735,216.146 158.527 C 217.421 157.963,219.143 156.988,219.973 156.361 C 221.566 155.156,230.152 150.354,235.556 147.646 C 237.321 146.761,239.988 145.110,241.481 143.978 C 242.975 142.845,245.198 141.312,246.420 140.570 C 247.642 139.829,249.670 138.587,250.926 137.810 C 253.531 136.199,260.336 134.329,263.674 134.305 C 269.663 134.264,269.300 128.909,263.253 128.107 C 261.871 127.924,260.744 127.636,260.747 127.467 C 260.751 127.299,261.275 125.494,261.913 123.457 C 264.854 114.068,265.941 106.363,265.302 99.442 C 264.326 88.870,261.966 79.457,257.956 70.151 C 254.457 62.028,254.714 60.144,260.373 52.457 C 266.076 44.710,262.842 42.180,254.362 47.754 C 249.983 50.633,246.420 51.738,246.420 50.218 C 246.420 49.790,246.623 49.315,246.872 49.162 C 247.932 48.506,250.041 41.702,250.041 38.936 C 250.041 33.396,247.942 33.097,244.513 38.148 C 239.757 45.154,238.680 45.581,235.853 41.587 L 234.422 39.565 236.073 32.992 C 237.881 25.792,238.301 18.055,237.098 14.074 C 236.770 12.988,236.297 10.909,236.046 9.454 C 235.402 5.716,233.704 4.238,232.173 6.083 M214.874 46.296 C 215.551 47.043,216.738 48.654,217.510 49.877 C 218.283 51.099,220.393 53.543,222.200 55.309 C 224.007 57.074,226.455 59.963,227.640 61.728 C 228.825 63.494,230.308 65.560,230.934 66.319 C 235.040 71.296,242.840 90.624,248.407 109.612 C 250.978 118.381,247.699 124.657,236.049 133.267 C 232.926 135.575,229.148 138.531,227.654 139.836 C 224.866 142.270,216.052 148.813,217.160 147.625 C 219.391 145.233,215.780 140.961,213.475 143.266 C 211.753 144.988,212.098 141.533,214.111 136.897 C 214.498 136.005,214.815 134.069,214.815 132.595 C 214.815 130.568,215.051 129.695,215.784 129.012 C 216.318 128.515,217.095 127.292,217.512 126.293 C 217.929 125.295,219.271 123.352,220.493 121.976 C 224.689 117.252,221.551 112.448,216.992 116.613 L 215.958 117.557 215.357 112.596 C 213.939 100.894,207.268 86.780,199.440 78.916 C 197.729 77.196,194.826 70.941,194.558 68.395 C 194.254 65.500,194.542 64.901,196.757 63.825 C 201.254 61.640,212.840 48.853,212.840 46.074 C 212.840 44.582,213.372 44.640,214.874 46.296 M129.383 219.724 C 129.383 220.396,128.909 220.590,126.420 220.937 L 124.198 221.248 126.420 220.305 C 129.074 219.179,129.383 219.118,129.383 219.724 " stroke="none" fill="#000000" fill-rule="evenodd"></path></g></svg>